<?xml version="1.0" standalone="no"?>
<!DOCTYPE svg PUBLIC "-//W3C//DTD SVG 20010904//EN"
 "http://www.w3.org/TR/2001/REC-SVG-20010904/DTD/svg10.dtd">
<svg version="1.0" xmlns="http://www.w3.org/2000/svg"
 width="722.000000pt" height="722.000000pt" viewBox="0 0 722.000000 722.000000"
 preserveAspectRatio="xMidYMid meet">
<metadata>
Created by potrace 1.14, written by Peter Selinger 2001-2017
</metadata>
<g transform="translate(0.000000,722.000000) scale(0.100000,-0.100000)"
fill="#000000" stroke="none">
<path d="M0 3610 l0 -3610 3610 0 3610 0 0 3610 0 3610 -3610 0 -3610 0 0
-3610z m3029 2106 c21 -11 17 -12 -32 -8 -87 7 -146 -30 -175 -113 l-10 -30
-1 30 c-1 39 31 90 71 115 38 23 111 26 147 6z m241 -2 c6 -5 -12 -8 -46 -6
-42 3 -62 -1 -91 -18 -49 -29 -70 -10 -22 20 27 17 46 20 92 17 31 -2 62 -8
67 -13z m274 -27 c15 -11 12 -12 -24 -9 -59 6 -102 -5 -132 -33 -21 -19 -27
-21 -32 -10 -3 9 8 24 32 40 41 28 125 35 156 12z m-749 -117 c-3 -5 -15 -10
-25 -10 -10 0 -22 5 -25 10 -4 6 7 10 25 10 18 0 29 -4 25 -10z m975 -5 c42
-22 37 -25 -11 -9 -24 9 -55 12 -75 8 -22 -4 -34 -2 -34 5 0 16 86 14 120 -4z
m-1045 -4 c15 -6 6 -9 -33 -13 -80 -8 -138 -59 -152 -135 l-8 -38 -1 46 c-2
100 102 176 194 140z m1233 -110 c8 -5 -6 -8 -37 -7 -28 1 -51 4 -51 9 0 10
72 9 88 -2z m-1448 -71 c11 -7 3 -10 -28 -10 -78 0 -136 -47 -158 -127 l-13
-48 0 46 c-1 56 29 106 79 131 38 20 96 23 120 8z m1595 -34 c19 -8 35 -17 35
-19 0 -6 -68 17 -76 26 -11 11 4 8 41 -7z m-1800 -175 c-3 -5 -18 -12 -34 -16
-48 -10 -92 -65 -100 -126 l-8 -54 -7 37 c-13 63 17 122 79 156 24 14 78 16
70 3z m1930 -19 c-3 -3 -11 0 -18 7 -9 10 -8 11 6 5 10 -3 15 -9 12 -12z
m-2071 -201 c3 -5 -9 -18 -28 -29 -45 -27 -69 -65 -76 -121 l-6 -46 -8 36
c-12 54 21 121 71 148 46 24 41 23 47 12z m-44 -328 c0 -4 -14 -22 -31 -39
-18 -19 -37 -53 -45 -81 l-13 -48 0 43 c-1 24 6 56 14 72 20 38 75 77 75 53z
m1858 1 c16 -5 22 -13 20 -27 -4 -26 -62 -67 -96 -67 -29 0 -148 -77 -216
-140 l-49 -45 8 35 c10 51 48 102 115 154 110 87 157 106 218 90z m-1878 -264
c0 -5 -9 -24 -20 -42 -11 -18 -20 -51 -21 -73 l-1 -40 -10 37 c-8 30 -6 45 11
82 18 41 41 62 41 36z m867 -95 c51 -15 114 -58 102 -69 -3 -3 -23 0 -45 6
-47 13 -244 16 -296 4 -82 -19 -118 22 -55 64 29 19 41 21 137 16 58 -3 129
-12 157 -21z m1070 -266 c4 -55 1 -99 -6 -122 -19 -57 -102 -175 -177 -253
-62 -64 -77 -73 -149 -98 -44 -14 -136 -34 -205 -42 -124 -16 -127 -16 -270 8
-128 22 -160 32 -275 84 l-130 59 110 6 c148 7 351 62 490 131 270 136 454
260 532 360 l48 61 13 -54 c7 -30 16 -93 19 -140z m-1913 79 c-9 -59 -14 -60
-14 -5 0 26 5 47 10 47 6 0 8 -16 4 -42z m91 -287 c-3 -5 -18 -12 -34 -16 -35
-8 -51 -40 -52 -108 -1 -50 -1 -51 -9 -17 -8 32 -7 54 7 103 2 10 19 24 36 31
38 17 60 20 52 7z m1395 -1302 l0 -231 -52 42 c-29 23 -88 70 -130 104 l-78
61 0 75 0 76 118 51 c64 28 123 51 130 52 9 1 12 -51 12 -230z m254 128 c17
-12 84 -198 85 -238 1 -9 -8 -23 -18 -30 -11 -8 -42 -33 -69 -56 l-49 -43 -78
223 c-43 122 -80 228 -83 235 -4 11 169 -63 212 -91z m-144 -157 c45 -129 83
-236 85 -238 1 -1 23 16 49 39 26 23 49 39 51 37 9 -8 45 -523 45 -636 l0
-113 -32 17 c-61 31 -175 -11 -218 -81 l-22 -35 26 -55 c14 -31 39 -67 56 -81
35 -30 37 -40 10 -49 -12 -4 -36 -21 -54 -39 l-33 -33 -101 391 c-71 271 -113
454 -136 596 -19 113 -32 207 -31 209 2 1 49 -34 104 -78 l101 -82 0 243 c0
141 4 238 9 233 5 -6 46 -116 91 -245z m-440 15 c-19 -19 -37 -35 -42 -35 -8
0 63 69 71 70 3 0 -10 -16 -29 -35z m-906 -4 c-28 -17 -47 -48 -57 -96 -3 -12
-5 -6 -6 14 -1 25 7 41 33 67 19 19 40 34 48 34 7 0 -1 -9 -18 -19z m106 -680
c-6 -22 -27 -62 -47 -88 l-37 -48 -67 -430 c-60 -385 -73 -447 -118 -594 -50
-161 -51 -165 -51 -293 0 -118 2 -133 25 -178 14 -28 23 -50 20 -50 -2 0 -16
22 -30 50 -23 45 -25 60 -25 180 0 130 0 133 55 313 49 164 60 222 116 587
l62 405 38 58 c46 70 58 110 61 197 l2 65 3 -67 c2 -37 -1 -85 -7 -107z m1720
-233 c33 -92 40 -102 123 -170 63 -53 77 -99 77 -260 0 -104 -3 -128 -14 -128
-26 0 -90 -101 -152 -239 l-60 -136 -77 -3 c-65 -2 -83 1 -124 22 -63 32 -106
78 -138 148 -35 77 -40 118 -22 171 l15 45 -54 66 c-30 36 -54 74 -54 84 0 29
37 70 82 93 l41 21 -41 41 c-23 23 -51 64 -62 90 l-21 48 27 36 c27 36 92 72
129 73 11 0 79 -34 150 -76 201 -118 199 -117 112 -25 -65 70 -77 88 -77 117
0 54 18 74 66 74 l41 0 33 -92z m-418 -570 c-7 -30 -19 -21 -36 29 -21 62 -21
63 13 23 16 -20 26 -42 23 -52z m753 -108 c65 -65 105 -113 100 -118 -130
-110 -175 -156 -181 -188 -3 -19 -8 -34 -11 -34 -12 0 -223 134 -223 141 0 5
20 54 45 110 57 129 107 192 155 198 3 1 55 -48 115 -109z m-103 -358 c9 -9
-23 -142 -34 -142 -5 0 -56 33 -113 73 -101 70 -104 73 -105 110 0 21 7 51 15
67 l15 30 108 -66 c59 -36 110 -68 114 -72z m-2182 -482 c6 -11 8 -20 6 -20
-3 0 -10 9 -16 20 -6 11 -8 20 -6 20 3 0 10 -9 16 -20z"/>
<path d="M3874 3884 c-52 -29 -63 -40 -73 -75 -12 -40 -12 -41 -52 -34 -34 6
-44 3 -78 -24 -64 -51 -207 -110 -341 -142 -154 -37 -160 -39 -160 -48 0 -4
69 9 153 29 158 39 296 95 355 145 28 24 38 26 76 21 l44 -7 14 43 c12 35 24
49 69 75 86 51 87 52 69 52 -8 0 -42 -16 -76 -35z"/>
<path d="M4360 765 c-10 -12 -10 -18 0 -30 7 -8 18 -15 25 -15 7 0 18 7 25 15
10 12 10 18 0 30 -7 8 -18 15 -25 15 -7 0 -18 -7 -25 -15z"/>
</g>
</svg>
